<?xml version="1.0" encoding="utf-8"?>
<svg width="162px" height="32px" viewBox="0 0 162 32" version="1.1" xmlns:xlink="http://www.w3.org/1999/xlink" xmlns="http://www.w3.org/2000/svg">
  <desc>Created with Lunacy</desc>
  <g id="hi@uxlove.com" fill="#FFFFFF">
    <path d="M11.9063 24.4023L9.98438 24.4023L9.98438 17.4883Q9.98437 13.7383 7.19531 13.7383Q5.78906 13.7383 4.82813 14.8223Q3.86719 15.9063 3.86719 17.6055L3.86719 24.4023L1.94531 24.4023L1.94531 6.63672L3.86719 6.63672L3.86719 14.3945L3.91406 14.3945Q5.29688 12.1211 7.85156 12.1211Q11.9062 12.1211 11.9063 17.0078L11.9063 24.4023ZM70.7813 24.4023L68.8594 24.4023L68.8594 6.63672L70.7813 6.63672L70.7813 24.4023ZM16.5117 9.35547Q15.9961 9.35547 15.6328 9.00391Q15.2695 8.65234 15.2695 8.11328Q15.2695 7.57422 15.6328 7.2168Q15.9961 6.85938 16.5117 6.85938Q17.0391 6.85938 17.4082 7.2168Q17.7773 7.57422 17.7773 8.11328Q17.7773 8.62891 17.4082 8.99219Q17.0391 9.35547 16.5117 9.35547ZM32.9766 19.4805L33.0352 19.4805Q33.0469 22.2695 35.6133 22.2695Q37.5938 22.2695 38.9707 20.4824Q40.3477 18.6953 40.3477 15.9063Q40.3477 12.0977 37.7344 9.73047Q35.1211 7.36328 31.1367 7.36328Q26.8828 7.36328 24.1465 10.1875Q21.4102 13.0117 21.4102 17.3008Q21.4102 21.4609 24.0176 24.0332Q26.625 26.6055 30.8906 26.6055Q33.9258 26.6055 35.9531 25.7383L35.9531 24.2852Q33.9023 25.2461 31.0078 25.2461Q27.3398 25.2461 25.1777 23.0371Q23.0156 20.8281 23.0156 17.2305Q23.0156 13.5742 25.2891 11.1367Q27.5625 8.69922 31.043 8.69922Q34.6523 8.69922 36.6914 10.7383Q38.7305 12.7773 38.7305 16Q38.7305 18.1797 37.8926 19.5508Q37.0547 20.9219 35.7891 20.9219Q34.3945 20.9219 34.3945 18.4961Q34.3945 18.3789 34.9453 11.9219L33.4805 11.9219Q33.3867 12.9414 33.3633 13.2695L33.3164 13.2695Q33.1289 12.6133 32.4668 12.1797Q31.8047 11.7461 30.9609 11.7461Q28.7578 11.7461 27.4043 13.498Q26.0508 15.25 26.0508 17.8984Q26.0508 19.9023 27.0293 21.0859Q28.0078 22.2695 29.6133 22.2695Q32.1211 22.2695 32.9766 19.4805ZM75.4395 23.002Q77.0273 24.6836 79.6875 24.6836Q82.418 24.6836 84.041 22.9551Q85.6641 21.2266 85.6641 18.3555Q85.6641 15.4258 84.1582 13.7734Q82.6523 12.1211 79.9688 12.1211Q77.1563 12.1211 75.5039 13.8203Q73.8516 15.5195 73.8516 18.543Q73.8516 21.3203 75.4395 23.002ZM101.402 18.8828L109.875 18.8828L109.875 17.875Q109.875 15.168 108.586 13.6445Q107.297 12.1211 104.941 12.1211Q102.586 12.1211 100.998 13.8848Q99.4102 15.6484 99.4102 18.4492Q99.4102 21.4141 100.863 23.0488Q102.316 24.6836 104.859 24.6836Q107.461 24.6836 109.043 23.5352L109.043 21.7305Q107.344 23.0664 105.316 23.0664Q103.512 23.0664 102.48 21.9766Q101.449 20.8867 101.402 18.8828ZM122.883 24.6836Q124.781 24.6836 126.164 23.8516L126.164 22.0234Q124.781 23.0664 123.211 23.0664Q121.348 23.0664 120.24 21.8477Q119.133 20.6289 119.133 18.5195Q119.133 16.375 120.311 15.0566Q121.488 13.7383 123.328 13.7383Q124.852 13.7383 126.188 14.6758L126.188 12.707Q124.98 12.1211 123.398 12.1211Q120.563 12.1211 118.863 13.9199Q117.164 15.7188 117.164 18.6836Q117.164 21.3438 118.74 23.0137Q120.316 24.6836 122.883 24.6836ZM134.086 24.6836Q131.426 24.6836 129.838 23.002Q128.25 21.3203 128.25 18.543Q128.25 15.5195 129.902 13.8203Q131.555 12.1211 134.367 12.1211Q137.051 12.1211 138.557 13.7734Q140.063 15.4258 140.063 18.3555Q140.063 21.2266 138.439 22.9551Q136.816 24.6836 134.086 24.6836ZM158.25 24.4023L160.172 24.4023L160.172 17.0078Q160.172 12.1211 156.211 12.1211Q153.563 12.1211 152.227 14.6055Q151.887 13.4922 150.973 12.8066Q150.059 12.1211 148.828 12.1211Q146.379 12.1211 145.102 14.3008L145.055 14.3008L145.055 12.4023L143.133 12.4023L143.133 24.4023L145.055 24.4023L145.055 17.5586Q145.055 15.8594 145.875 14.7988Q146.695 13.7383 147.961 13.7383Q150.691 13.7383 150.691 17.2773L150.691 24.4023L152.613 24.4023L152.613 17.5586Q152.613 15.9883 153.475 14.8633Q154.336 13.7383 155.566 13.7383Q157.02 13.7383 157.635 14.6289Q158.25 15.5195 158.25 17.5117L158.25 24.4023ZM17.4492 24.4023L15.5273 24.4023L15.5273 12.4023L17.4492 12.4023L17.4492 24.4023ZM53.9648 24.4023L52.043 24.4023L52.043 22.5039L51.9961 22.5039Q50.8008 24.6836 48.293 24.6836Q44.0039 24.6836 44.0039 19.5742L44.0039 12.4023L45.9141 12.4023L45.9141 19.2695Q45.9141 23.0664 48.8203 23.0664Q50.2266 23.0664 51.1348 22.0293Q52.043 20.9922 52.043 19.3164L52.043 12.4023L53.9648 12.4023L53.9648 24.4023ZM62.5781 18.4727L66.6094 12.4023L64.4883 12.4023L61.4883 17.4414L61.4414 17.4414Q61.1953 16.9609 60.9375 16.5039L58.6172 12.4023L56.3789 12.4023L60.293 18.5195L56.2031 24.4023L58.418 24.4023L60.8203 20.5117Q61.3125 19.7031 61.3711 19.5977L61.418 19.5977Q61.7227 20.1484 61.9453 20.5117L64.3008 24.4023L66.5391 24.4023L62.5781 18.4727ZM98.168 12.4023L93.3867 24.4023L91.5 24.4023L86.9531 12.4023L89.0625 12.4023L92.1094 21.1211Q92.4492 22.082 92.5313 22.7969L92.5781 22.7969Q92.6953 21.8945 92.9531 21.168L96.1406 12.4023L98.168 12.4023ZM28.5879 14.4883Q29.4844 13.1055 30.9375 13.1055Q33.0586 13.1055 33.0586 15.6133Q33.0586 18.0039 32.209 19.4512Q31.3594 20.8984 29.9063 20.8984Q28.8984 20.8984 28.2949 20.1016Q27.6914 19.3047 27.6914 17.9219Q27.6914 15.8711 28.5879 14.4883ZM76.8984 14.998Q77.9766 13.7383 79.8281 13.7383Q81.6914 13.7383 82.6934 14.957Q83.6953 16.1758 83.6953 18.4258Q83.6953 20.6523 82.6934 21.8594Q81.6914 23.0664 79.8281 23.0664Q78 23.0664 76.9102 21.8359Q75.8203 20.6055 75.8203 18.4727Q75.8203 16.2578 76.8984 14.998ZM107.104 14.6641Q107.895 15.5898 107.906 17.2539L101.426 17.2539Q101.648 15.6836 102.598 14.7109Q103.547 13.7383 104.906 13.7383Q106.313 13.7383 107.104 14.6641ZM134.227 13.7383Q132.375 13.7383 131.297 14.998Q130.219 16.2578 130.219 18.4727Q130.219 20.6055 131.309 21.8359Q132.398 23.0664 134.227 23.0664Q136.09 23.0664 137.092 21.8594Q138.094 20.6523 138.094 18.4258Q138.094 16.1758 137.092 14.957Q136.09 13.7383 134.227 13.7383ZM113.449 24.6602Q112.91 24.6602 112.529 24.2734Q112.148 23.8867 112.148 23.3477Q112.148 22.8086 112.529 22.416Q112.91 22.0234 113.449 22.0234Q114 22.0234 114.387 22.416Q114.773 22.8086 114.773 23.3477Q114.773 23.8867 114.387 24.2734Q114 24.6602 113.449 24.6602Z" />
  </g>
</svg>