<?xml version="1.0" encoding="utf-8"?>
<svg width="97px" height="57px" viewBox="0 0 97 57" version="1.1" 
    xmlns:xlink="http://www.w3.org/1999/xlink" 
    xmlns="http://www.w3.org/2000/svg">
    <desc>Created with Lunacy</desc>
    <g id="logo_2">
        <path d="M0 20L0 0L5.85366 0L5.85366 15.122L10 15.122L10 20L0 20L0 20Z" transform="translate(15 36)" id="Path" fill="#FFFFFF" stroke="none" />
        <path d="M0 20L7.875 0L10.1842 0L18 20L12.2566 20L8.88158 11.5854L5.50658 20L0 20L0 20Z" transform="translate(26 36)" id="Path" fill="#FFFFFF" stroke="none" />
        <path d="M0 20L0 0L2.02527 0L11.5379 8.96341L11.5379 0L17 0L17 20L15.1588 20L5.46209 10.9756L5.46209 20L0 20L0 20Z" transform="translate(44 36)" id="Path" fill="#FFFFFF" stroke="none" />
        <path d="M14 15.6279L14 20.3285C12.9274 20.7558 11.7419 21 10.5565 21C4.68548 21 0 16.8488 0 10.3169C0 7.26453 1.29839 4.39535 3.5 2.50291C5.53226 0.732558 8.24193 0 10.7823 0C11.8548 0 12.9839 0.18314 14 0.488372L13.379 5.25C12.6452 5.00581 11.8548 4.82267 11.0645 4.82267C7.84677 4.82267 4.91129 6.65407 4.91129 10.439C4.91129 14.2238 7.79032 16.1163 11.0081 16.1163C12.0242 16.1163 13.0403 15.9942 14 15.6279L14 15.6279Z" transform="translate(63 36)" id="Path" fill="#FFFFFF" stroke="none" />
        <path d="M0 20L0 0L2.01695 0L10.5 10.7317L19.1017 0L21 0L21 20L15.5424 20L15.5424 12.9268L10.5 19.3293L5.45763 12.9268L5.45763 20L0 20L0 20Z" transform="translate(0 13)" id="Path" fill="#FFFFFF" stroke="none" />
        <path d="M0 20L0 0L2.02527 0L11.5379 8.90244L11.5379 0L17 0L17 20L15.2202 20L5.46209 10.9146L5.46209 20L0 20L0 20Z" transform="translate(44 13)" id="Path" fill="#FFFFFF" stroke="none" />
        <path d="M4.8 20L4.8 5.2439L0 5.2439L0 0L15 0L15 5.2439L10.02 5.2439L10.02 20L4.8 20L4.8 20Z" transform="translate(63 13)" id="Path" fill="#FFFFFF" stroke="none" />
        <path d="M0 0L0 20L6.51429 20C8.51429 20 10.5143 19.878 12.1143 18.4146C13.3143 17.378 14 15.8537 14 14.2683C14 12.3171 12.9143 10.8537 11.5429 9.63415C12.8 8.65854 13.5429 7.07317 13.5429 5.36585C13.5429 2.07317 10.8 0 7.94286 0L0 0ZM5.48571 4.39024L5.48571 7.43902L7.08571 7.43902C7.88571 7.56098 8.62857 7.0122 8.74286 6.15854C8.85714 5.30488 8.34286 4.5122 7.54286 4.39024L5.48571 4.39024ZM5.48571 15.122L5.48571 11.7683L7.25714 11.7683C8.11429 11.8293 8.8 12.622 8.74286 13.5366C8.68571 14.4512 7.94286 15.1829 7.08571 15.122L5.48571 15.122Z" transform="translate(0 36)" id="Shape" fill="#FFFFFF" fill-rule="evenodd" stroke="none" />
        <path d="M19 10.5C19 5.09827 14.9876 0 9.5 0C4.01242 0 0 5.09827 0 10.5C0 15.9017 4.01242 21 9.5 21C14.9876 21 19 15.9017 19 10.5ZM4.83851 10.5607C4.83851 7.95087 6.6087 5.03757 9.38199 5.03757C12.2143 5.03757 14.0435 7.95087 14.0435 10.5607C14.0435 13.1705 12.2733 16.0838 9.44099 16.0838C6.6087 16.0838 4.83851 13.1705 4.83851 10.5607Z" transform="translate(23 12)" id="Shape" fill="#FFFFFF" fill-rule="evenodd" stroke="none" />
        <path d="M15.6708 13.5451C14.541 15.4716 12.1624 14.388 11.33 14.8696C10.4975 15.3512 10.2001 18 8 18C5.79985 18 5.68093 15.4114 4.67005 14.8696C3.65917 14.3278 1.39956 15.4114 0.329214 13.5451C-0.741128 11.6789 1.34009 10.5351 1.34009 9.0301C1.34009 7.52508 -0.800592 6.44147 0.329214 4.51505C1.45902 2.58863 3.65917 3.79264 4.67005 3.19064C5.68093 2.58863 5.85932 0 8 0C10.1407 0 10.438 2.64883 11.33 3.13043C12.3408 3.73244 14.6599 2.64883 15.6708 4.51505C16.8006 6.44147 14.6599 7.52508 14.6599 9.0301C14.6599 10.2341 16.8006 11.6187 15.6708 13.5451Z" transform="translate(81 0)" id="Path" fill="#FFFFFF" stroke="none" />
    </g>
</svg>