<?xml version="1.0" encoding="utf-8"?>
<svg width="95px" height="16px" viewBox="0 0 95 16" version="1.1" 
    xmlns:xlink="http://www.w3.org/1999/xlink" 
    xmlns="http://www.w3.org/2000/svg">
    <desc>Created with Lunacy</desc>
    <path d="M83.7676 12.5049C83.7676 10.8274 84.8363 9.63225 86.899 9.04017C87.2303 8.95246 88.283 8.70028 90.1052 8.38779C90.8533 8.21784 91.1739 7.98759 91.1739 7.42292C91.1739 6.85825 90.538 6.39775 89.5708 6.39775C88.4326 6.39775 87.7166 6.94597 87.7166 7.93277L84.4783 7.93277C84.4783 5.40546 86.418 3.89786 89.6563 3.89786C93.0335 3.89786 94.6687 5.34516 94.6687 8.28363L94.6687 13.9796C94.6687 14.9445 94.6687 14.9445 95 15.5421L91.6762 15.5421L91.4839 14.6046C90.18 15.7011 89.3784 15.9971 87.9677 15.9971C85.531 15.9971 83.7836 14.5169 83.7836 12.4995M90.2922 10.482C89.9021 10.5368 89.4639 10.6519 88.9884 10.7671C87.8234 11.0796 87.273 11.562 87.273 12.2747C87.273 12.9874 87.8074 13.4095 88.7158 13.4095C90.4632 13.4095 91.2648 12.6146 91.2648 10.9644L91.2648 10.1969C90.8212 10.3395 90.6556 10.3395 90.2976 10.482M72.439 11.8197L75.9284 11.8197L75.9284 11.9622C75.9284 12.8997 76.6765 13.4698 77.8682 13.4698C78.8941 13.4698 79.53 13.0696 79.53 12.4446C79.53 11.8197 78.9476 11.392 77.5636 11.1673L76.4254 10.9699C73.8497 10.5149 72.7436 9.55002 72.7436 7.78475C72.7436 5.33968 74.71 3.89237 77.9483 3.89237C80.2194 3.89237 81.6301 4.51735 82.3515 5.88242C82.6561 6.43064 82.7095 6.62252 82.795 7.84505L79.4713 7.84505C79.3858 6.79246 78.9369 6.39775 77.8682 6.39775C76.9811 6.39775 76.4254 6.73764 76.4254 7.3352C76.4254 7.93277 76.9597 8.19043 78.1407 8.38779L79.359 8.61256C81.9347 9.06758 83.0996 10.2024 83.0996 12.1376C83.0996 14.495 81.1599 15.9752 78.0605 15.9752C74.4054 15.9752 72.4123 14.495 72.4123 11.7977M49.0336 12.4775C49.0336 10.8 50.1024 9.60484 52.1918 9.01276C52.5231 8.92505 53.5758 8.70028 55.3499 8.36038C56.1247 8.19043 56.4186 7.96018 56.4186 7.39551C56.4186 6.83084 55.7827 6.37033 54.8155 6.37033C53.6773 6.37033 52.988 6.91856 52.9612 7.90535L49.723 7.90535C49.723 5.37805 51.6627 3.87044 54.8743 3.87044C58.2515 3.87044 59.9454 5.31775 59.9454 8.25622L59.9454 13.9796C59.9454 14.9445 59.9454 14.9445 60.2233 15.5421L56.9263 15.5421L56.782 14.6046C55.8434 15.5402 54.5737 16.0431 53.2658 15.9971C50.8558 15.9971 49.0817 14.5169 49.0817 12.4995M55.6171 10.482C55.1735 10.5697 54.7834 10.6794 54.3132 10.7671C53.1483 11.0796 52.5979 11.562 52.5979 12.2747C52.5979 12.9874 53.1322 13.4095 54.0407 13.4095C55.7293 13.4095 56.5629 12.6146 56.5629 10.9644L56.5629 10.1969C56.2441 10.2725 55.93 10.3677 55.6224 10.482M11.4195 14.0674C10.9492 13.245 10.8851 12.8174 10.8851 10.9699L10.8851 4.39125L14.46 4.39125L14.46 10.8274C14.46 12.472 14.9035 13.1299 16.0631 13.1299C17.2227 13.1299 17.8372 12.3624 17.8372 10.8274L17.8372 4.37481L21.3801 4.37481L21.3801 15.5421L18.0937 15.5421L17.9815 14.4456C17.1916 15.3621 16.0475 15.8738 14.8554 15.8436C13.3325 15.8436 12.0553 15.2186 11.4195 14.0838M68.0892 15.564L68.0892 9.21012C68.0892 7.56546 67.619 6.88018 66.4861 6.88018C65.3532 6.88018 64.7387 7.64769 64.7387 9.21012L64.7387 15.5421L61.1959 15.5421L61.1959 4.37481L64.4341 4.37481L64.5463 5.62475C65.3447 4.57847 66.584 3.98899 67.8782 4.04001C69.1724 4.09104 70.364 4.77637 71.0817 5.88242C71.5519 6.73216 71.616 7.22008 71.616 9.06758L71.616 15.5421L68.0732 15.5421M44.6946 15.5421L44.6946 9.21012C44.6946 7.56546 44.1976 6.88018 43.0915 6.88018C41.9265 6.88018 41.3441 7.64769 41.3441 9.21012L41.3441 15.5421L37.7692 15.5421L37.7692 0L41.3441 0L41.3441 5.62475C41.937 4.55419 43.0816 3.93391 44.2778 4.03491C45.6652 3.94443 46.9854 4.65762 47.6977 5.88242C48.168 6.73216 48.2321 7.18718 48.2321 9.06758L48.2321 15.5421L44.7159 15.5421M34.3866 15.5421C32.2812 15.5421 31.314 14.5169 31.314 12.2528L31.314 6.77054L29.8178 6.77054L29.8178 4.37481L31.314 4.37481L31.314 0.855226L34.8729 0.855226L34.8729 4.38029L36.8928 4.38029L36.8928 6.82536L34.8729 6.82536L34.8729 11.2605C34.8996 12.9051 35.0118 12.9929 36.3691 12.9929L37.0638 12.9929L37.0638 15.553L34.3919 15.553M23.6191 15.553L23.6191 6.81988L22.048 6.81988L22.048 4.37481L23.5977 4.37481L23.5977 4.03491C23.5977 1.08 24.6664 8.88178e-16 27.4452 8.88178e-16L29.3849 8.88178e-16L29.3849 2.47248L28.8025 2.47248C27.4719 2.47248 27.1406 2.78497 27.1406 4.03491L27.1406 4.37481L29.246 4.37481L29.246 6.81988L27.1406 6.81988L27.1406 15.5421L23.5977 15.5421M0 15.5421L0 0L3.74058 0L3.74058 12.4775L10.153 12.4775L10.153 15.5476L0 15.5476" id="path5425" fill="#FFFFFF" stroke="none" />
</svg>