<?xml version="1.0" encoding="utf-8"?>
<svg width="106px" height="37px" viewBox="0 0 106 37" version="1.1" 
    xmlns:xlink="http://www.w3.org/1999/xlink" 
    xmlns="http://www.w3.org/2000/svg">
    <desc>Created with Lunacy</desc>
    <g id="logo_3">
        <path d="M87.6904 0.00723178C83.4818 0.00151296 79.4005 1.46314 76.1379 4.14457C69.4042 -1.38152 59.7494 -1.38152 53.0157 4.14457C46.282 -1.38152 36.6271 -1.38152 29.8934 4.14457C22.413 -1.98241 11.5067 -1.22343 4.93143 5.88171C-1.64381 12.9869 -1.64381 24.0131 4.93143 31.1183C11.5067 38.2234 22.413 38.9824 29.8934 32.8554C36.6271 38.3815 46.282 38.3815 53.0157 32.8554C59.7494 38.3815 69.4042 38.3815 76.1379 32.8554C82.3978 37.9689 91.2344 38.3601 97.9144 33.8193C104.594 29.2786 107.551 20.8707 105.202 13.0993C102.852 5.32794 95.7459 0.0153628 87.6904 0.00723178ZM32.8479 7.14176C38.0072 13.8167 38.0072 23.1747 32.8479 29.8496C37.9416 33.7941 45.0275 33.7941 50.1211 29.8496C44.9618 23.1747 44.9618 13.8167 50.1211 7.14176C45.0275 3.19725 37.9416 3.19725 32.8479 7.14176ZM55.9702 29.8496C61.1295 23.1747 61.1295 13.8167 55.9702 7.14176C61.0638 3.19725 68.1497 3.19725 73.2433 7.14176C68.084 13.8167 68.084 23.1747 73.2433 29.8496C68.1497 33.7941 61.0638 33.7941 55.9702 29.8496ZM4.20208 18.5C4.20253 13.0522 7.26939 8.07703 12.1132 5.66639C16.9569 3.25575 22.7376 3.8277 27.0246 7.14176C21.8653 13.8167 21.8653 23.1747 27.0246 29.8496C22.7388 33.1627 16.9601 33.7354 12.117 31.3269C7.27389 28.9184 4.20579 23.9463 4.20208 18.5ZM79.0581 29.8669C81.5316 31.79 84.5674 32.8319 87.6904 32.8295C93.8831 32.8302 99.3611 28.7804 101.224 22.8239C103.088 16.8674 100.906 10.38 95.8347 6.79591C90.763 3.21179 83.9727 3.35876 79.0581 7.15904C84.2174 13.834 84.2174 23.1919 79.0581 29.8669ZM29.8934 10.1649C26.3731 15.1354 26.3731 21.8128 29.8934 26.7833C33.4138 21.8128 33.4138 15.1354 29.8934 10.1649ZM53.0157 26.7833C49.4953 21.8128 49.4953 15.1354 53.0157 10.1649C56.536 15.1354 56.536 21.8128 53.0157 26.7833ZM76.1379 10.1649C72.6175 15.1354 72.6175 21.8128 76.1379 26.7833C79.6583 21.8128 79.6583 15.1354 76.1379 10.1649Z" id="Shape" fill="#FFFFFF" fill-rule="evenodd" stroke="none" />
    </g>
</svg>