<?xml version="1.0" encoding="utf-8"?>
<svg width="76px" height="72px" viewBox="0 0 76 72" version="1.1" 
    xmlns:xlink="http://www.w3.org/1999/xlink" 
    xmlns="http://www.w3.org/2000/svg">
    <desc>Created with Lunacy</desc>
    <g id="logo_18">
        <path d="M6.15971 5.01697C4.48322 4.7269 2.97625 4.64111 2.97625 3.66468C2.99694 3.24754 3.19267 2.86366 3.50746 2.62288C3.79378 2.37775 4.55103 2.28787 5.0634 2.28787C5.58953 2.30289 6.089 2.54216 6.45357 2.9538C6.71173 3.27357 6.88148 3.66581 6.94333 4.08548L9.6634 4.08548C9.63864 3.0086 9.17336 1.99948 8.39379 1.33187C7.6403 0.731301 6.65324 0 5.30451 0C4.01606 0 2.74644 0.0449403 1.86863 0.755814C0.990828 1.46669 0.361671 2.59837 0.361671 3.61565C0.361671 4.1917 0.32023 4.88215 0.52367 5.30295C0.885136 5.94143 1.35875 6.49667 1.91761 6.93715C2.63342 7.38246 4.30992 7.55814 5.23293 7.8237C5.98641 8.02388 6.90943 8.06882 7.11663 8.89001C7.2567 9.35724 7.078 9.8672 6.68715 10.1157C6.19703 10.446 5.62902 10.6149 5.05209 10.6018C4.43701 10.6482 3.83321 10.4056 3.39443 9.93589C3.10506 9.48664 2.87787 8.99388 2.72007 8.47329L0 8.47329C0.0873509 9.80985 0.670471 11.051 1.61622 11.9133C2.45635 12.6446 3.57904 13 5.00689 13C6.43473 13 7.68551 12.7344 8.60853 12.0236C9.482 11.2599 9.99247 10.1108 9.9987 8.89409C10.0192 8.09157 9.79689 7.30383 9.36578 6.65116C8.56709 5.51948 7.13547 5.20899 6.15218 5.05374L6.15971 5.01697Z" transform="translate(60 59)" id="Path" fill="#FFFFFF" stroke="none" />
        <path d="M0 12L3 12L3 0L0 0L0 12L0 12L0 12L0 12Z" transform="translate(29 60)" id="Path" fill="#FFFFFF" stroke="none" />
        <path d="M0 3L3 3L3 0L0 0L0 3L0 3L0 3L0 3Z" transform="translate(29 57)" id="Path" fill="#FFFFFF" stroke="none" />
        <path d="M10.9971 5.33019C9.77206 4.43409 8.27136 3.92164 6.71151 3.86687L6.54849 3.86687C2.93186 3.86687 0 6.58296 0 9.93343C0 13.2839 2.93186 16 6.54849 16L6.71151 16C8.31157 15.9792 9.8404 15.3836 10.9756 14.3388L10.9971 15.8291L14 15.8291L14 0L10.9971 0L10.9971 5.33019ZM6.7158 13.5122L6.73725 13.5122C8.88614 13.5122 10.6282 11.8983 10.6282 9.9076C10.6282 7.91685 8.88614 6.30303 6.73725 6.30303L6.7158 6.30303C4.5669 6.30303 2.82488 7.91685 2.82488 9.9076C2.82488 11.8983 4.5669 13.5122 6.7158 13.5122Z" transform="translate(14 56)" id="Shape" fill="#FFFFFF" fill-rule="evenodd" stroke="none" />
        <path d="M11.0162 5.30765C9.79086 4.41036 8.28866 3.89767 6.72738 3.84398L6.56424 3.84398C2.93891 3.84398 0 6.56519 0 9.92199C0 13.2788 2.93891 16 6.56424 16L6.72738 16C8.32835 15.9559 9.85237 15.354 10.9948 14.3145L10.9948 15.8052L14 15.8052L14 0L10.9948 0L11.0162 5.30765ZM2.85932 9.90086C2.8538 11.8864 4.58306 13.5024 6.72738 13.5155C8.88561 13.5047 10.633 11.8885 10.647 9.89019C10.6352 7.90468 8.89182 6.30174 6.74744 6.30468C4.60307 6.30762 2.86484 7.91533 2.85932 9.90086Z" transform="translate(32 56)" id="Shape" fill="#FFFFFF" fill-rule="evenodd" stroke="none" />
        <path d="M10.1511 1.51187L10.1511 0.335782L10.147 0.335782L12.9798 0.315364L13 12.7582L10.143 12.7786L10.143 11.6475C9.83543 12.0885 9.35386 12.2886 8.69424 12.5336C7.98476 12.8133 7.23374 12.9707 6.47257 12.9992L6.44829 12.9992C4.72166 13.0274 3.05818 12.3444 1.8417 11.1075C0.625219 9.87072 -0.0391869 8.18701 0.001789 6.44491C0.000102709 5.60792 0.149577 4.77763 0.442886 3.99473C0.756283 3.23291 1.20317 2.53433 1.76213 1.93249C2.32667 1.30538 3.01621 0.805782 3.78551 0.466459C4.58994 0.144554 5.4495 -0.0136585 6.31474 0.000923622L6.44829 0.000923622C7.2033 0.0320248 7.94884 0.182216 8.65782 0.446041C9.24781 0.646985 9.76681 1.01742 10.1511 1.51187ZM6.47257 10.1896L6.48066 10.1896C8.48841 10.1852 10.1147 8.54141 10.1147 6.51433C10.1147 4.48453 8.48404 2.83905 6.47257 2.83905L6.44829 2.83905C4.43682 2.83905 2.8062 4.48453 2.8062 6.51433C2.8062 8.54413 4.43682 10.1896 6.44829 10.1896L6.47257 10.1896Z" transform="translate(1 59)" id="Shape" fill="#FFFFFF" fill-rule="evenodd" stroke="none" />
        <path d="M10.1263 1.47598L10.1061 0.29887L12.9555 0.323393L13 12.7566L10.1465 12.7771L10.1465 11.6449C9.83932 12.0863 9.3341 12.2866 8.67529 12.5318C7.97118 12.8268 7.21838 12.9849 6.45635 12.9978C4.73825 13.0441 3.07777 12.3695 1.86892 11.134C0.63753 9.89778 -0.0375986 8.2043 0.00161799 6.45009C0.00473927 5.61095 0.160942 4.7796 0.462382 3.99778C0.752916 3.21637 1.20171 2.50498 1.78 1.90922C2.34167 1.28012 3.031 0.78102 3.8009 0.446009C4.60853 0.141127 5.465 -0.00991934 6.32701 0.000504993L6.44018 0.000504993C7.18799 0.0235922 7.92799 0.161403 8.63487 0.409224C9.21265 0.632631 9.72554 0.999482 10.1263 1.47598ZM2.83099 6.48967C2.82578 8.51375 4.43864 10.1618 6.44018 10.1776C8.46021 10.1664 10.095 8.51324 10.1061 6.47052C10.0905 4.4465 8.46071 2.81552 6.45912 2.82079C4.45752 2.82606 2.8362 4.46559 2.83099 6.48967Z" transform="translate(47 59)" id="Shape" fill="#FFFFFF" fill-rule="evenodd" stroke="none" />
        <path d="M2.98517 0C2.99573 0.00988627 3.0092 0.0160422 3.02355 0.0175336C4.6674 0.0175337 6 1.35675 6 3.00877C6 4.66078 4.6674 6 3.02355 6L2.98517 6C1.33651 6 0 4.65685 0 3C0 1.34315 1.33651 0 2.98517 0ZM0.556592 3.01352C0.549546 4.39061 1.65329 5.51341 3.02355 5.52309C4.39796 5.52505 5.51585 4.41101 5.52544 3.02981C5.52733 1.65271 4.41939 0.534081 3.0491 0.52959C1.67882 0.525099 0.563639 1.63644 0.556592 3.01352Z" transform="translate(70 54)" id="Shape" fill="#FFFFFF" fill-rule="evenodd" stroke="none" />
        <path d="M2.48507 2.22391C2.65825 2.32368 2.81854 2.44051 2.96296 2.57225L2.9773 2.56365C3.15581 2.76965 3.31563 2.98825 3.4552 3.21732L4 3.9871L2.93429 3.9871L2.28435 3.1012C2.1578 2.89393 1.99662 2.70538 1.80645 2.54214C1.80645 2.52064 1.78256 2.52064 1.78256 2.49484C1.72216 2.42739 1.64054 2.37793 1.54839 2.35292C1.39187 2.31947 1.23135 2.30358 1.07049 2.30562L0.912784 2.30562L0.912784 4L0 4L0 0.00487018L1.91159 0.00487018C2.26065 -0.0131224 2.61068 0.0188109 2.94863 0.0994804C3.1551 0.181843 3.33451 0.310701 3.46953 0.473621C3.59385 0.674326 3.66576 0.897864 3.67981 1.12729C3.68073 1.38828 3.56942 1.63947 3.36918 1.82827C3.14345 2.05928 2.82599 2.20135 2.48507 2.22391ZM0.912784 1.68635L1.7491 1.68635C2.05974 1.66055 2.29391 1.68635 2.37037 1.63905C2.44683 1.59174 2.52808 1.52293 2.60454 1.47563C2.68144 1.3813 2.71869 1.2655 2.70968 1.14879C2.7224 1.03568 2.67448 0.923888 2.58065 0.847761C2.49272 0.764554 2.3734 0.713936 2.24612 0.705846C2.08831 0.681799 1.9279 0.674581 1.76822 0.684343L0.912784 0.684343L0.912784 1.68635Z" transform="translate(71 55)" id="Shape" fill="#FFFFFF" fill-rule="evenodd" stroke="none" />
        <path d="M43.9042 27.6551L27.5064 27.6551C27.1385 17.1304 30.0659 6.43574 35.7112 0C41.4475 6.26981 44.4145 16.917 43.9042 27.6551ZM3.53275 27.6551L23.4752 27.6354C18.1978 19.726 10.2857 15.5145 0 13.6893C0.428422 18.5022 1.62091 23.2164 3.53275 27.6551ZM47.8681 27.6551L68.2101 27.6551L68.2141 27.6433C70.1288 23.4871 71.3473 19.007 72 13.7327C61.5442 15.313 53.4818 19.7537 47.8681 27.6551ZM64.3451 35.3986L7.23165 35.4223C6.39728 34.2424 5.6679 32.9918 5.05187 31.6849L66.5288 31.6849C65.935 32.9959 65.2044 34.2407 64.349 35.3986L64.3451 35.3986ZM13.5653 42.5612L57.7543 42.5849C59.0834 41.5701 60.3247 40.4454 61.4651 39.2229L9.90989 39.2229C11.0967 40.7795 12.0936 41.376 13.5653 42.5612ZM39.0738 45.6468L39.0684 45.6468L39.0738 45.6349L39.0738 45.6468ZM39.0684 45.6468C38.1924 47.5608 37.082 49.359 35.7626 51C34.3134 49.3892 33.0916 47.5881 32.131 45.6468L39.0684 45.6468ZM30.8927 45.6705L18.2611 45.6705C22.0352 48.0053 26.4541 49.554 31.4822 50.5931L30.8927 45.6705ZM39.7741 50.2928L40.5257 45.6705L53.1415 45.6705C49.2686 47.9224 44.822 49.3644 39.7741 50.2928Z" id="Shape" fill="#FFFFFF" fill-rule="evenodd" stroke="none" />
    </g>
</svg>