<?xml version="1.0" encoding="utf-8"?>
<svg width="24px" height="24px" viewBox="0 0 24 24" version="1.1" 
    xmlns:xlink="http://www.w3.org/1999/xlink" 
    xmlns="http://www.w3.org/2000/svg">
    <desc>Created with Lunacy</desc>
    <g id="iconmonstr-dribbble-1">
        <path d="M0 12C0 5.373 5.372 0 12 0C18.628 0 24 5.373 24 12C24 18.627 18.628 24 12 24C5.372 24 0 18.627 0 12ZM13.057 7.839C15.175 6.942 16.838 5.713 18.043 4.159C16.368 2.866 14.275 2.087 12 2.087C11.16 2.087 10.348 2.204 9.569 2.401C10.879 4.163 12.041 5.978 13.057 7.839ZM7.527 3.166C8.858 4.908 10.038 6.704 11.064 8.547C8.634 9.262 5.733 9.629 2.38 9.652C3.072 6.817 4.981 4.459 7.527 3.166ZM21.885 11.441C19.31 11.019 16.942 10.996 14.782 11.368C14.538 10.805 14.285 10.243 14.015 9.688C16.325 8.688 18.18 7.33 19.563 5.606C20.913 7.2 21.76 9.225 21.885 11.441ZM2.1 11.744L2.087 12C2.087 14.407 2.951 16.615 4.383 18.334C6.555 15.076 9.34 12.911 12.72 11.854C12.506 11.374 12.283 10.897 12.05 10.422C9.269 11.296 5.949 11.739 2.1 11.744ZM15.582 13.343C16.422 15.587 17.064 17.887 17.502 20.24C19.753 18.731 21.344 16.325 21.781 13.539C19.522 13.147 17.458 13.078 15.582 13.343ZM5.916 19.81C7.885 16.722 10.398 14.712 13.514 13.783C14.442 16.203 15.123 18.693 15.557 21.243C12.208 22.534 8.604 21.909 5.916 19.81Z" id="Shape" fill="#FFFFFF" fill-rule="evenodd" stroke="none" />
    </g>
</svg>