<?xml version="1.0" encoding="utf-8"?>
<svg width="120px" height="41px" viewBox="0 0 120 41" version="1.1" 
    xmlns:xlink="http://www.w3.org/1999/xlink" 
    xmlns="http://www.w3.org/2000/svg">
    <desc>Created with Lunacy</desc>
    <g id="logo_11">
        <path d="M0 41L0 0L120 0L120 41L0 41ZM0.86231 20.5C0.86231 31.2426 27.3382 39.9352 60.0037 39.9352C92.6618 39.9352 119.116 31.2353 119.116 20.5C119.116 9.76466 92.6691 1.06484 60.0037 1.06484C27.3382 1.06484 0.86231 9.75742 0.86231 20.5Z" id="Shape" fill="#FFFFFF" fill-rule="evenodd" stroke="none" />
        <path d="M10.6818 15C10.9675 15 11.0879 14.895 10.9299 14.734C10.6866 14.1283 10.5766 13.4832 10.6066 12.8371L10.6066 2.16286C10.5766 1.51678 10.6866 0.871699 10.9299 0.265982C11.0879 0.104993 10.9675 0 10.6818 0L0.318242 0C0.0324557 0 -0.0878754 0.104993 0.0700592 0.265982C0.313411 0.871699 0.423388 1.51678 0.393449 2.16286L0.393449 12.8301C0.423388 13.4762 0.313411 14.1213 0.0700592 14.727C-0.0878754 14.888 0.0324557 14.993 0.318242 14.993L10.6818 14.993" transform="translate(17 13)" id="Path" fill="#FFFFFF" stroke="none" />
        <path d="M9.87675 5.34716L13.4727 0.587139C13.6237 0.440354 13.5446 0.244641 13.5446 0.160764C13.5446 0.0768872 13.5446 2.48326e-15 13.6165 2.48326e-15L23.3903 2.48326e-15C23.5198 2.48326e-15 23.4623 0.0908667 23.3903 0.160764L19.3629 5.63374C19.175 5.83668 19.1911 6.14899 19.3988 6.33271L24.9366 14.8392C24.9941 14.9091 25.0445 15 24.9366 15L13.0052 15C12.9333 15 12.9333 14.9301 12.9333 14.8392C12.9333 14.7484 13.1203 13.9795 12.9693 13.8397L9.87675 9.24045L9.87675 12.8332C9.84812 13.4784 9.95329 14.1225 10.186 14.7274C10.337 14.8882 10.222 14.993 9.94867 14.993L0.333097 14.993C0.0598044 14.993 -0.055266 14.8882 0.0957639 14.7274C0.321386 14.114 0.416799 13.4625 0.376248 12.8122L0.376248 2.15983C0.404682 1.51467 0.299519 0.870529 0.0669963 0.26561C-0.0840336 0.104846 0.0310368 0 0.304329 0L9.94867 0C10.222 0 10.337 0.104846 10.186 0.26561C9.95329 0.870481 9.84812 1.51466 9.87675 2.15983L9.87675 5.34716" transform="translate(33 13)" id="Path" fill="#FFFFFF" stroke="none" />
        <path d="M9.83114 9.51787C9.82682 9.44558 9.85489 9.37495 9.90831 9.32374C9.96172 9.27254 10.0354 9.24562 10.1108 9.24977L14.0039 9.24977C14.6621 9.20803 15.323 9.23168 15.9762 9.32032C16.1013 9.44026 16.2558 9.36265 16.2558 9.13688L16.2558 5.51035C16.2558 5.28457 16.1013 5.20696 15.9762 5.32691C15.323 5.41555 14.6621 5.43919 14.0039 5.39746L10.1182 5.39746C10.0427 5.4016 9.96908 5.37469 9.91567 5.32348C9.86225 5.27228 9.83418 5.20165 9.8385 5.12935L9.8385 4.4238C9.83418 4.3515 9.86225 4.28088 9.91567 4.22967C9.96908 4.17846 10.0427 4.15155 10.1182 4.15569L15.7186 4.15569C16.3906 4.12911 17.0613 4.23228 17.6909 4.45908C17.8602 4.60019 17.9706 4.49436 17.9706 4.22625L17.9706 0L0.308166 0C0.0285112 0 -0.0818788 0.134055 0.0653078 0.296331C0.312886 0.900149 0.430541 1.54573 0.411196 2.19426L0.411196 12.841C0.438925 13.4853 0.33131 14.1283 0.0947452 14.7319C-0.0524415 14.8942 0.0579485 15 0.337603 15L18 15L18 10.548C18 10.2799 17.8896 10.174 17.7203 10.3151C17.0908 10.5421 16.4201 10.6453 15.748 10.6185L10.1182 10.6185C10.0414 10.6229 9.9664 10.5951 9.91272 10.5422C9.85904 10.4894 9.83196 10.4168 9.8385 10.3434L9.8385 9.51787" transform="translate(61 13)" id="Path" fill="#FFFFFF" stroke="none" />
        <path d="M19.1573 1.37459C19.2079 1.59424 25 15 25 15L14.596 15C14.4222 15 14.3643 14.915 14.4222 14.7803C14.499 14.5671 14.499 14.3346 14.4222 14.1214L13.9806 12.7043C13.9492 12.5476 13.8549 12.4099 13.7188 12.3219C13.5826 12.234 13.4161 12.2033 13.2566 12.2367L9.63655 12.2367C9.47704 12.2033 9.31051 12.234 9.17437 12.3219C9.03823 12.4099 8.94389 12.5476 8.91254 12.7043L8.47089 14.1214C8.39417 14.3346 8.39417 14.5671 8.47089 14.7803C8.53606 14.9079 8.49261 15 8.29713 15L0 15L5.1839 1.37459C5.29913 1.06815 5.29913 0.73157 5.1839 0.42513C5.0391 0.0779405 5.16218 0 5.40834 0L18.9328 0C19.1573 0 19.3021 0.0779405 19.1573 0.42513C19.0414 0.731458 19.0414 1.06826 19.1573 1.37459ZM10.1868 9.01275C10.1506 9.10487 10.1651 9.24658 10.2954 9.24658L12.1416 9.24658C12.2502 9.2324 12.2864 9.10487 12.2502 9.01275L11.3524 6.92962C11.3235 6.87293 11.3018 6.80916 11.2221 6.80916C11.1425 6.80916 11.1208 6.87293 11.0846 6.92962L10.1868 9.01275Z" transform="translate(82 13)" id="Shape" fill="#FFFFFF" fill-rule="evenodd" stroke="none" />
    </g>
</svg>