<?xml version="1.0" encoding="utf-8"?>
<svg width="122px" height="37px" viewBox="0 0 122 37" version="1.1" 
    xmlns:xlink="http://www.w3.org/1999/xlink" 
    xmlns="http://www.w3.org/2000/svg">
    <desc>Created with Lunacy</desc>
    <g id="logo_1">
        <path d="M18.4685 0C8.25724 0 0 8.25724 0 18.4685C0 28.6797 8.25724 37 18.5315 37C28.7428 37 37 28.7428 37 18.5315C37 8.25724 28.6797 0 18.4685 0ZM7.94208 14.2453C13.615 12.5434 23.448 12.8586 29.4361 16.3884C30.1925 16.7666 31.138 16.5145 31.6422 15.7581C32.2095 15.0017 32.0204 13.9302 31.201 13.3629C24.3305 9.32879 13.4889 8.9506 6.93356 10.9046C6.87053 10.9046 6.74446 10.9676 6.68143 10.9676C5.79898 11.3458 5.35775 12.3543 5.67291 13.2368C6.05111 14.1193 7.05963 14.5605 7.94208 14.2453ZM29.247 21.6201C28.8058 22.3135 27.9233 22.5026 27.23 22.1244C22.2504 19.0988 14.6865 18.2164 8.82453 19.9813C8.06814 20.2334 7.24872 19.8552 6.99659 19.0988C6.74446 18.3424 7.12266 17.523 7.87905 17.2709L7.94208 17.2709C14.6865 15.2538 23.0068 16.1993 28.7428 19.7291C29.4361 20.0443 29.6252 20.9267 29.247 21.6201ZM25.402 27.0409C25.9063 27.356 26.6627 27.23 26.9779 26.6627C27.293 26.0954 27.1039 25.402 26.6627 25.0869C21.7462 22.0613 15.6951 21.368 8.63543 23.0068C8.00511 23.1329 7.62692 23.7632 7.75298 24.3935C7.87905 25.0238 8.50937 25.402 9.13969 25.276C15.569 23.7632 21.0528 24.3935 25.402 27.0409Z" id="Shape" fill="#FFFFFF" fill-rule="evenodd" stroke="none" />
        <g id="SVGID_1_-link" transform="translate(42 9)">
            <path d="M7.3125 7.07586C4.29886 6.33103 3.76705 5.77241 3.76705 4.71724C3.76705 3.66207 4.7125 2.97931 6.07159 2.97931C7.54886 3.04138 9.02614 3.6 10.1489 4.5931C10.208 4.65517 10.267 4.65517 10.267 4.65517C10.3261 4.65517 10.3852 4.5931 10.3852 4.5931L11.8625 2.42069C11.9216 2.35862 11.9216 2.23448 11.8034 2.11034C10.208 0.744828 8.13977 0 6.07159 0C2.82159 0 0.576136 2.04828 0.576136 4.96552C0.576136 8.06897 2.52614 9.18621 5.89432 10.0552C8.78977 10.7379 9.2625 11.2966 9.2625 12.3517C9.2625 13.469 8.25795 14.2138 6.72159 14.2138C4.94886 14.2138 3.53068 13.5931 1.93523 12.1655C1.87614 12.1034 1.81705 12.1034 1.81705 12.1034C1.75795 12.1034 1.69886 12.1655 1.69886 12.1655L0.0443182 14.2138C-0.0147727 14.2759 -0.0147727 14.4 0.0443182 14.5241C1.87614 16.2621 4.23977 17.1931 6.6625 17.1931C10.1489 17.1931 12.3943 15.2069 12.3943 12.1034C12.4534 9.43448 10.9761 8.0069 7.3125 7.07586" transform="translate(0.1329546 0.3103448)" id="SVGID_1_" fill="#FFFFFF" stroke="none" />
        </g>
        <path d="M3.14218 1.95911C4.12796 0.695167 5.54502 0 7.08531 0C9.98104 0 13 2.46468 13 6.82528C13 11.1859 10.0427 13.5242 7.08531 13.5242C5.54502 13.5242 4.12796 12.8922 3.14218 11.6915L3.14218 16.8104C3.14218 16.9368 3.08057 17 2.95735 17L0.184834 17C0.0616114 17 0 16.9368 0 16.8104L0 0.505576Q3.72529e-09 0.315985 0.184834 0.315985L2.95735 0.315985C3.08057 0.315985 3.14218 0.379182 3.14218 0.505576L3.14218 1.95911ZM6.40758 10.4907C8.31754 10.4907 9.67299 8.97398 9.67299 6.69888C9.67299 4.48699 8.31754 2.90706 6.40758 2.90706C4.49763 2.90706 3.08057 4.55019 3.08057 6.69888C3.08057 8.84758 4.49763 10.4907 6.40758 10.4907Z" transform="translate(57 14)" id="Shape" fill="#FFFFFF" fill-rule="evenodd" stroke="none" />
        <path d="M0.000951599 7.15431C-0.0597916 3.30826 2.79514 0.114078 6.37899 0.0488905C6.40936 0.0162968 6.42455 0 6.43973 0C6.45492 0 6.4701 0.0162968 6.50048 0.0488905C10.0843 0.0488905 13 3.17788 13 7.02393C13 10.8048 10.1451 13.9338 6.62196 13.999C3.03811 14.0642 0.0616948 11.0004 0.000951599 7.15431ZM2.91663 7.15431C2.91663 9.2403 4.43521 10.9352 6.37899 10.9352C6.50048 10.9352 6.56122 10.9352 6.56122 10.87C8.44426 10.7396 9.9021 8.97955 9.78061 6.95875L9.78061 6.82837C9.84135 4.74238 8.26203 3.04751 6.31825 3.04751C4.37446 3.04751 2.91663 4.67719 2.91663 6.95875L2.91663 7.15431Z" transform="translate(71 13)" id="Shape" fill="#FFFFFF" fill-rule="evenodd" stroke="none" />
        <g id="SVGID_3_-link" transform="translate(83 10)">
            <path d="M8.1 3.47143L4.88571 3.47143L4.88571 0.192857C4.88571 0.0642857 4.82143 0 4.69286 0L4.69286 0L1.8 0C1.67143 0 1.60714 0.0642857 1.60714 0.192857L1.60714 0.192857L1.60714 3.47143L0.192857 3.47143C0.0642857 3.47143 0 3.53571 0 3.66429L0 3.66429L0 6.17143C0 6.3 0.0642857 6.36429 0.192857 6.36429L0.192857 6.36429L1.60714 6.36429L1.60714 12.8571C1.60714 15.4929 2.89286 16.8429 5.46429 16.8429C6.42857 16.8429 7.39286 16.65 8.22857 16.1357C8.29286 16.0714 8.35714 16.0071 8.35714 15.9429L8.35714 13.5643C8.35714 13.4357 8.29286 13.3714 8.16428 13.3714C8.1 13.3714 8.1 13.3714 8.03571 13.3714C7.52143 13.6286 6.94286 13.7571 6.3 13.7571C5.33571 13.7571 4.95 13.3071 4.95 12.4071L4.95 6.36429L8.16428 6.36429C8.29286 6.36429 8.35714 6.3 8.35714 6.17143L8.35714 6.17143L8.35714 3.66429C8.29286 3.53571 8.22857 3.47143 8.1 3.47143L8.1 3.47143" transform="translate(0.5785714 0.5785714)" id="SVGID_3_" fill="#FFFFFF" stroke="none" />
        </g>
        <g id="SVGID_5_-link" transform="translate(99 8)">
            <path d="M4.75 5.07675L4.75 4.68246C4.75 3.4996 5.1875 2.90817 6.1875 2.90817C6.75 2.90817 7.25 3.0396 7.8125 3.23675C7.9375 3.30246 8.0625 3.23675 8.0625 3.10532C8.0625 3.10532 8.0625 3.0396 8.0625 3.0396L8.0625 0.542461C8.0625 0.476746 8 0.345318 7.9375 0.345318C7.1875 0.0824605 6.375 -0.0489681 5.5625 0.0167462C2.9375 0.0167462 1.5625 1.59389 1.5625 4.48532L1.5625 5.14246L0.1875 5.14246C0.0625 5.14246 0 5.20817 0 5.3396L0 5.3396L0 7.90246C0 8.03389 0.0625 8.0996 0.1875 8.0996L0.1875 8.0996L1.5625 8.0996L1.5625 18.351C1.5625 18.4825 1.625 18.5482 1.75 18.5482L1.75 18.5482L4.5625 18.5482C4.6875 18.5482 4.75 18.4825 4.75 18.351L4.75 18.351L4.75 8.03389L7.375 8.03389L11.4375 18.2853C11 19.3367 10.5 19.5996 9.9375 19.5996C9.375 19.5996 8.875 19.4025 8.375 19.1396C8.3125 19.1396 8.25 19.1396 8.1875 19.1396C8.125 19.1396 8.0625 19.2053 8.0625 19.271L7.125 21.5053C7.0625 21.6367 7.125 21.7025 7.1875 21.7682C8.125 22.2939 9.1875 22.6225 10.25 22.5567C12.375 22.5567 13.5 21.5053 14.5 18.7453L19.4375 5.3396C19.5 5.20817 19.4375 5.07675 19.3125 5.07675C19.3125 5.07675 19.25 5.07675 19.25 5.07675L16.3125 5.07675C16.25 5.07675 16.125 5.14246 16.125 5.20817L13.125 14.2767L9.8125 5.20817C9.8125 5.14246 9.6875 5.07675 9.625 5.07675L4.75 5.07675" transform="translate(0.1875 0.3775395)" id="SVGID_5_" fill="#FFFFFF" stroke="none" />
        </g>
        <g id="SVGID_7_-link" transform="translate(94 13)">
            <path d="M3.2 0L0.2 0C0.0666667 0 0 0.0666667 0 0.2L0 0.2L0 13.4C0 13.5333 0.0666667 13.6 0.2 13.6L0.2 13.6L3.2 13.6C3.33333 13.6 3.4 13.5333 3.4 13.4L3.4 13.4L3.4 0.2C3.4 0.0666667 3.33333 0 3.2 0L3.2 0" transform="translate(0 0.2)" id="SVGID_7_" fill="#FFFFFF" stroke="none" />
        </g>
        <g id="SVGID_9_-link" transform="translate(94 8)">
            <path d="M1.82857 0C0.8 0 0 1.07143 0 2.28571C0 3.5 0.857143 4.57143 1.82857 4.57143C2.8 4.57143 3.65714 3.5 3.65714 2.28571C3.71429 1.07143 2.85714 0.0714286 1.82857 0" transform="translate(0.1714286 0.1428571)" id="SVGID_9_" fill="#FFFFFF" stroke="none" />
        </g>
        <path d="M2 4C0.875 4 0 3.125 0 2C0 0.875 0.875 0 2 0C3.125 0 4 0.875 4 2C4 3.125 3.125 4 2 4ZM0.1875 2C0.1875 1 1 0.1875 2 0.1875C3 0.25 3.8125 1 3.8125 2C3.8125 3 3 3.8125 2 3.8125C1 3.8125 0.1875 3 0.1875 2ZM2.4375 2.1875L3 3L2.5 3L2 2.25L1.5625 2.25L1.5625 3L1.1875 3L1.1875 0.9375L2.125 0.9375C2.625 0.9375 2.9375 1.1875 2.9375 1.625C2.9375 1.875 2.75 2.125 2.4375 2.1875ZM1.625 1.25L2.125 1.25C2.375 1.25 2.5625 1.4375 2.5625 1.625C2.5625 1.8125 2.375 1.9375 2.125 1.9375L1.625 1.9375L1.625 1.25Z" transform="translate(118 13)" id="Shape" fill="#FFFFFF" fill-rule="evenodd" stroke="none" />
    </g>
</svg>