<?xml version="1.0" encoding="utf-8"?>
<svg width="24px" height="24px" viewBox="0 0 24 24" version="1.1" 
    xmlns:xlink="http://www.w3.org/1999/xlink" 
    xmlns="http://www.w3.org/2000/svg">
    <desc>Created with Lunacy</desc>
    <path d="M12 0C8.741 0 8.333 0.014 7.053 0.072C2.695 0.272 0.273 2.69 0.073 7.052C0.014 8.333 0 8.741 0 12C0 15.259 0.014 15.668 0.072 16.948C0.272 21.306 2.69 23.728 7.052 23.928C8.333 23.986 8.741 24 12 24C15.259 24 15.668 23.986 16.948 23.928C21.302 23.728 23.73 21.31 23.927 16.948C23.986 15.668 24 15.259 24 12C24 8.741 23.986 8.333 23.928 7.053C23.732 2.699 21.311 0.273 16.949 0.073C15.668 0.014 15.259 0 12 0ZM16.85 2.233C15.584 2.175 15.204 2.163 12 2.163C8.796 2.163 8.417 2.175 7.151 2.232C3.896 2.38 2.381 3.924 2.232 7.151C2.175 8.417 2.162 8.796 2.162 12C2.162 15.205 2.174 15.584 2.232 16.849C2.38 20.07 3.891 21.62 7.151 21.769C8.416 21.827 8.796 21.839 12 21.839C15.206 21.839 15.584 21.827 16.85 21.769C20.105 21.621 21.62 20.075 21.769 16.85C21.826 15.585 21.838 15.206 21.838 12.001C21.838 8.797 21.827 8.417 21.769 7.152C21.621 3.924 20.102 2.381 16.85 2.233ZM16.965 5.595C16.965 4.8 17.61 4.155 18.406 4.155C19.201 4.155 19.845 4.8 19.845 5.595C19.845 6.39 19.201 7.035 18.406 7.035C17.61 7.035 16.965 6.39 16.965 5.595ZM5.838 12C5.838 8.597 8.597 5.838 12 5.838C15.403 5.838 18.162 8.597 18.162 12C18.162 15.404 15.403 18.163 12 18.163C8.597 18.163 5.838 15.403 5.838 12ZM12 16C9.791 16 8 14.21 8 12C8 9.791 9.791 8 12 8C14.209 8 16 9.791 16 12C16 14.21 14.209 16 12 16Z" id="Shape" fill="#FFFFFF" fill-rule="evenodd" stroke="none" />
</svg>