<?xml version="1.0" encoding="utf-8"?>
<svg width="24px" height="20px" viewBox="0 0 24 20" version="1.1" 
    xmlns:xlink="http://www.w3.org/1999/xlink" 
    xmlns="http://www.w3.org/2000/svg">
    <desc>Created with Lunacy</desc>
    <path d="M2.846 3.887C2.876 3.592 2.763 3.301 2.543 3.103L0.303 0.403L0.303 0L7.261 0L12.639 11.795L17.367 4.44089e-16L24 4.44089e-16L24 0.403L22.084 2.24C21.919 2.366 21.837 2.573 21.871 2.778L21.871 16.276C21.837 16.48 21.919 16.687 22.084 16.813L23.955 18.65L23.955 19.053L14.543 19.053L14.543 18.65L16.482 16.768C16.672 16.578 16.672 16.522 16.672 16.231L16.672 5.321L11.283 19.009L10.555 19.009L4.28 5.321L4.28 14.495C4.228 14.88 4.356 15.269 4.627 15.547L7.148 18.605L7.148 19.009L0 19.009L0 18.605L2.521 15.547C2.791 15.268 2.911 14.877 2.846 14.495L2.846 3.887L2.846 3.887Z" id="Path" fill="#FFFFFF" stroke="none" />
</svg>